<?xml version="1.0" encoding="UTF-8"?>
<svg width="29px" height="33px" viewBox="0 0 29 33" version="1.1" xmlns="http://www.w3.org/2000/svg" xmlns:xlink="http://www.w3.org/1999/xlink">
    <!-- Generator: Sketch 62 (91390) - https://sketch.com -->
    <title>编组 8</title>
    <desc>Created with Sketch.</desc>
    <g id="Page-1" stroke="none" stroke-width="1" fill="none" fill-rule="evenodd" opacity="0.751162574">
        <g id="局部行车监控车辆浮窗" transform="translate(-1691.000000, -484.000000)" fill="#10AC00" fill-rule="nonzero">
            <g id="编组-6备份" transform="translate(1467.000000, 120.000000)">
                <g id="拥挤状况" transform="translate(10.713156, 356.623121)">
                    <g id="车" transform="translate(151.000000, 4.000000)">
                        <g id="编组-8" transform="translate(63.000000, 4.000000)">
                            <path d="M10.6457713,5 L1.36413046,5 C1.00661027,5 0.649090069,5.16026003 0.399173037,5.43880724 C0.142313865,5.72117015 0,6.10655738 0,6.49957603 L0,16.6989825 C0,17.5269927 0.6109083,18.1985585 1.36413046,18.1985585 C2.11735263,18.1985585 2.72826093,17.5269927 2.72826093,16.6989825 L2.72826093,15.3828754 C2.72826093,15.2302468 3.01635973,14.8448596 3.0892522,14.8181495 L3.0892522,30.500424 C3.0892522,31.3284341 3.7001605,32 4.45338266,32 C5.20660483,32 5.81751313,31.3284341 5.81751313,30.500424 L5.81751313,19.2478802 L6.18197547,19.2478802 L6.18197547,30.500424 C6.18197547,31.3284341 6.79288377,32 7.54610593,32 C8.2993281,32 8.9102364,31.3284341 8.9102364,30.500424 L8.9102364,14.7916976 C8.98312886,14.8184076 9.05602133,14.8641962 9.11155845,14.9290634 C9.21916162,15.0473505 9.27122766,15.1999791 9.27122766,15.3564235 L9.27122766,16.6989825 C9.27122766,17.5269927 9.88213596,18.1985585 10.6353581,18.1985585 C11.3885803,18.1985585 11.9994886,17.5269927 11.9994886,16.6989825 L11.9994886,6.49576032 C12.0099018,6.10655738 11.8606458,5.71735444 11.6107288,5.43880724 C11.3538696,5.15644432 11.0032915,5 10.6457713,5 Z M6.49819148,5 C7.87962488,5 9,3.88043478 9,2.5 C9,1.11956522 7.87962488,0 6.49819148,0 C5.11675808,0 4,1.11956522 4,2.5 C3.99638297,3.88043478 5.11675808,5 6.49819148,5 Z" id="形状备份"></path>
                            <path d="M26.6457713,5 L17.3641305,5 C17.0066103,5 16.6490901,5.16026003 16.399173,5.43880724 C16.1423139,5.72117015 16,6.10655738 16,6.49957603 L16,16.6989825 C16,17.5269927 16.6109083,18.1985585 17.3641305,18.1985585 C18.1173526,18.1985585 18.7282609,17.5269927 18.7282609,16.6989825 L18.7282609,15.3828754 C18.7282609,15.2302468 19.0163597,14.8448596 19.0892522,14.8181495 L19.0892522,30.500424 C19.0892522,31.3284341 19.7001605,32 20.4533827,32 C21.2066048,32 21.8175131,31.3284341 21.8175131,30.500424 L21.8175131,19.2478802 L22.1819755,19.2478802 L22.1819755,30.500424 C22.1819755,31.3284341 22.7928838,32 23.5461059,32 C24.2993281,32 24.9102364,31.3284341 24.9102364,30.500424 L24.9102364,14.7916976 C24.9831289,14.8184076 25.0560213,14.8641962 25.1115584,14.9290634 C25.2191616,15.0473505 25.2712277,15.1999791 25.2712277,15.3564235 L25.2712277,16.6989825 C25.2712277,17.5269927 25.882136,18.1985585 26.6353581,18.1985585 C27.3885803,18.1985585 27.9994886,17.5269927 27.9994886,16.6989825 L27.9994886,6.49576032 C28.0099018,6.10655738 27.8606458,5.71735444 27.6107288,5.43880724 C27.3538696,5.15644432 27.0032915,5 26.6457713,5 Z M22.4981915,5 C23.8796249,5 25,3.88043478 25,2.5 C25,1.11956522 23.8796249,0 22.4981915,0 C21.1167581,0 20,1.11956522 20,2.5 C19.996383,3.88043478 21.1167581,5 22.4981915,5 Z" id="形状备份-2"></path>
                        </g>
                    </g>
                </g>
            </g>
        </g>
    </g>
</svg>