<?xml version="1.0" encoding="UTF-8"?>
<svg width="13px" height="33px" viewBox="0 0 13 33" version="1.1" xmlns="http://www.w3.org/2000/svg" xmlns:xlink="http://www.w3.org/1999/xlink">
    <!-- Generator: Sketch 62 (91390) - https://sketch.com -->
    <title>形状</title>
    <desc>Created with Sketch.</desc>
    <g id="Page-1" stroke="none" stroke-width="1" fill="none" fill-rule="evenodd">
        <g id="局部行车监控车辆浮窗" transform="translate(-1659.000000, -484.000000)" fill="#6DD400" fill-rule="nonzero">
            <g id="编组-6备份" transform="translate(1467.000000, 120.000000)">
                <g id="拥挤状况" transform="translate(10.713156, 356.623121)">
                    <path d="M192.645771,13 L183.36413,13 C183.00661,13 182.64909,13.16026 182.399173,13.4388072 C182.142314,13.7211702 182,14.1065574 182,14.499576 L182,24.6989825 C182,25.5269927 182.610908,26.1985585 183.36413,26.1985585 C184.117353,26.1985585 184.728261,25.5269927 184.728261,24.6989825 L184.728261,23.3828754 C184.728261,23.2302468 185.01636,22.8448596 185.089252,22.8181495 L185.089252,38.500424 C185.089252,39.3284341 185.70016,40 186.453383,40 C187.206605,40 187.817513,39.3284341 187.817513,38.500424 L187.817513,27.2478802 L188.181975,27.2478802 L188.181975,38.500424 C188.181975,39.3284341 188.792884,40 189.546106,40 C190.299328,40 190.910236,39.3284341 190.910236,38.500424 L190.910236,22.7916976 C190.983129,22.8184076 191.056021,22.8641962 191.111558,22.9290634 C191.219162,23.0473505 191.271228,23.1999791 191.271228,23.3564235 L191.271228,24.6989825 C191.271228,25.5269927 191.882136,26.1985585 192.635358,26.1985585 C193.38858,26.1985585 193.999489,25.5269927 193.999489,24.6989825 L193.999489,14.4957603 C194.009902,14.1065574 193.860646,13.7173544 193.610729,13.4388072 C193.35387,13.1564443 193.003292,13 192.645771,13 Z M188.498191,13 C189.879625,13 191,11.8804348 191,10.5 C191,9.11956522 189.879625,8 188.498191,8 C187.116758,8 186,9.11956522 186,10.5 C185.996383,11.8804348 187.116758,13 188.498191,13 Z" id="形状"></path>
                </g>
            </g>
        </g>
    </g>
</svg>