<?xml version="1.0" encoding="UTF-8"?>
<svg width="39px" height="33px" viewBox="0 0 39 33" version="1.1" xmlns="http://www.w3.org/2000/svg" xmlns:xlink="http://www.w3.org/1999/xlink">
    <!-- Generator: Sketch 62 (91390) - https://sketch.com -->
    <title>编组 7</title>
    <desc>Created with Sketch.</desc>
    <g id="Page-1" stroke="none" stroke-width="1" fill="none" fill-rule="evenodd" opacity="0.751162574">
        <g id="局部行车监控车辆浮窗" transform="translate(-1725.000000, -484.000000)" fill="#FA6400" fill-rule="nonzero">
            <g id="编组-6备份" transform="translate(1467.000000, 120.000000)">
                <g id="拥挤状况" transform="translate(10.713156, 356.623121)">
                    <g id="车" transform="translate(151.000000, 4.000000)">
                        <g id="编组-7" transform="translate(97.000000, 4.000000)">
                            <path d="M10.6457713,5 L1.36413046,5 C1.00661027,5 0.649090069,5.16026003 0.399173037,5.43880724 C0.142313865,5.72117015 0,6.10655738 0,6.49957603 L0,16.6989825 C0,17.5269927 0.6109083,18.1985585 1.36413046,18.1985585 C2.11735263,18.1985585 2.72826093,17.5269927 2.72826093,16.6989825 L2.72826093,15.3828754 C2.72826093,15.2302468 3.01635973,14.8448596 3.0892522,14.8181495 L3.0892522,30.500424 C3.0892522,31.3284341 3.7001605,32 4.45338266,32 C5.20660483,32 5.81751313,31.3284341 5.81751313,30.500424 L5.81751313,19.2478802 L6.18197547,19.2478802 L6.18197547,30.500424 C6.18197547,31.3284341 6.79288377,32 7.54610593,32 C8.2993281,32 8.9102364,31.3284341 8.9102364,30.500424 L8.9102364,14.7916976 C8.98312886,14.8184076 9.05602133,14.8641962 9.11155845,14.9290634 C9.21916162,15.0473505 9.27122766,15.1999791 9.27122766,15.3564235 L9.27122766,16.6989825 C9.27122766,17.5269927 9.88213596,18.1985585 10.6353581,18.1985585 C11.3885803,18.1985585 11.9994886,17.5269927 11.9994886,16.6989825 L11.9994886,6.49576032 C12.0099018,6.10655738 11.8606458,5.71735444 11.6107288,5.43880724 C11.3538696,5.15644432 11.0032915,5 10.6457713,5 Z M6.49819148,5 C7.87962488,5 9,3.88043478 9,2.5 C9,1.11956522 7.87962488,0 6.49819148,0 C5.11675808,0 4,1.11956522 4,2.5 C3.99638297,3.88043478 5.11675808,5 6.49819148,5 Z" id="形状备份-3"></path>
                            <path d="M23.6457713,5 L14.3641305,5 C14.0066103,5 13.6490901,5.16026003 13.399173,5.43880724 C13.1423139,5.72117015 13,6.10655738 13,6.49957603 L13,16.6989825 C13,17.5269927 13.6109083,18.1985585 14.3641305,18.1985585 C15.1173526,18.1985585 15.7282609,17.5269927 15.7282609,16.6989825 L15.7282609,15.3828754 C15.7282609,15.2302468 16.0163597,14.8448596 16.0892522,14.8181495 L16.0892522,30.500424 C16.0892522,31.3284341 16.7001605,32 17.4533827,32 C18.2066048,32 18.8175131,31.3284341 18.8175131,30.500424 L18.8175131,19.2478802 L19.1819755,19.2478802 L19.1819755,30.500424 C19.1819755,31.3284341 19.7928838,32 20.5461059,32 C21.2993281,32 21.9102364,31.3284341 21.9102364,30.500424 L21.9102364,14.7916976 C21.9831289,14.8184076 22.0560213,14.8641962 22.1115584,14.9290634 C22.2191616,15.0473505 22.2712277,15.1999791 22.2712277,15.3564235 L22.2712277,16.6989825 C22.2712277,17.5269927 22.882136,18.1985585 23.6353581,18.1985585 C24.3885803,18.1985585 24.9994886,17.5269927 24.9994886,16.6989825 L24.9994886,6.49576032 C25.0099018,6.10655738 24.8606458,5.71735444 24.6107288,5.43880724 C24.3538696,5.15644432 24.0032915,5 23.6457713,5 Z M19.4981915,5 C20.8796249,5 22,3.88043478 22,2.5 C22,1.11956522 20.8796249,0 19.4981915,0 C18.1167581,0 17,1.11956522 17,2.5 C16.996383,3.88043478 18.1167581,5 19.4981915,5 Z" id="形状备份-4"></path>
                            <path d="M36.6457713,5 L27.3641305,5 C27.0066103,5 26.6490901,5.16026003 26.399173,5.43880724 C26.1423139,5.72117015 26,6.10655738 26,6.49957603 L26,16.6989825 C26,17.5269927 26.6109083,18.1985585 27.3641305,18.1985585 C28.1173526,18.1985585 28.7282609,17.5269927 28.7282609,16.6989825 L28.7282609,15.3828754 C28.7282609,15.2302468 29.0163597,14.8448596 29.0892522,14.8181495 L29.0892522,30.500424 C29.0892522,31.3284341 29.7001605,32 30.4533827,32 C31.2066048,32 31.8175131,31.3284341 31.8175131,30.500424 L31.8175131,19.2478802 L32.1819755,19.2478802 L32.1819755,30.500424 C32.1819755,31.3284341 32.7928838,32 33.5461059,32 C34.2993281,32 34.9102364,31.3284341 34.9102364,30.500424 L34.9102364,14.7916976 C34.9831289,14.8184076 35.0560213,14.8641962 35.1115584,14.9290634 C35.2191616,15.0473505 35.2712277,15.1999791 35.2712277,15.3564235 L35.2712277,16.6989825 C35.2712277,17.5269927 35.882136,18.1985585 36.6353581,18.1985585 C37.3885803,18.1985585 37.9994886,17.5269927 37.9994886,16.6989825 L37.9994886,6.49576032 C38.0099018,6.10655738 37.8606458,5.71735444 37.6107288,5.43880724 C37.3538696,5.15644432 37.0032915,5 36.6457713,5 Z M32.4981915,5 C33.8796249,5 35,3.88043478 35,2.5 C35,1.11956522 33.8796249,0 32.4981915,0 C31.1167581,0 30,1.11956522 30,2.5 C29.996383,3.88043478 31.1167581,5 32.4981915,5 Z" id="形状备份-5"></path>
                        </g>
                    </g>
                </g>
            </g>
        </g>
    </g>
</svg>